<svg width="64" height="64" viewBox="0 0 64 64" fill="none" xmlns="http://www.w3.org/2000/svg">
<path d="M10.6667 58.6667C9.91111 58.6667 9.27822 58.4107 8.768 57.8987C8.25778 57.3867 8.00178 56.7538 8 56V45.3334C8 43.8667 8.52267 42.6116 9.568 41.568C10.6133 40.5245 11.8684 40.0018 13.3333 40H50.6667C52.1333 40 53.3893 40.5227 54.4347 41.568C55.48 42.6134 56.0018 43.8685 56 45.3334V56C56 56.7556 55.744 57.3894 55.232 57.9014C54.72 58.4134 54.0871 58.6685 53.3333 58.6667H10.6667ZM13.3333 34.6667V26.6667C13.3333 25.2 13.856 23.9449 14.9013 22.9014C15.9467 21.8578 17.2018 21.3352 18.6667 21.3334H29.3333V17.4667C28.5333 16.9334 27.8889 16.2889 27.4 15.5334C26.9111 14.7778 26.6667 13.8667 26.6667 12.8C26.6667 12.1334 26.8 11.4774 27.0667 10.832C27.3333 10.1867 27.7333 9.59826 28.2667 9.06671L32 5.33337L35.7333 9.06671C36.2667 9.60004 36.6667 10.1885 36.9333 10.832C37.2 11.4756 37.3333 12.1316 37.3333 12.8C37.3333 13.8667 37.0889 14.7778 36.6 15.5334C36.1111 16.2889 35.4667 16.9334 34.6667 17.4667V21.3334H45.3333C46.8 21.3334 48.056 21.8552 49.1013 22.8987C50.1467 23.9423 50.6684 25.1983 50.6667 26.6667V34.6667H13.3333Z" fill="#BC1E21"/>
</svg>
