<svg width="40" height="40" viewBox="0 0 40 40" fill="none" xmlns="http://www.w3.org/2000/svg">
<mask id="mask0_2_53" style="mask-type:alpha" maskUnits="userSpaceOnUse" x="0" y="0" width="40" height="40">
<rect width="40" height="40" fill="#D9D9D9"/>
</mask>
<g mask="url(#mask0_2_53)">
<path d="M6.66665 33.3334C5.74998 33.3334 4.96526 33.007 4.31248 32.3542C3.6597 31.7014 3.33331 30.9167 3.33331 30V10C3.33331 9.08335 3.6597 8.29863 4.31248 7.64585C4.96526 6.99308 5.74998 6.66669 6.66665 6.66669H33.3333C34.25 6.66669 35.0347 6.99308 35.6875 7.64585C36.3403 8.29863 36.6666 9.08335 36.6666 10V30C36.6666 30.9167 36.3403 31.7014 35.6875 32.3542C35.0347 33.007 34.25 33.3334 33.3333 33.3334H6.66665ZM20 21.6667L6.66665 13.3334V30H33.3333V13.3334L20 21.6667ZM20 18.3334L33.3333 10H6.66665L20 18.3334ZM6.66665 13.3334V10V30V13.3334Z" fill="#1E1E1E"/>
</g>
</svg>
