<svg width="31" height="31" viewBox="0 0 31 31" fill="none" xmlns="http://www.w3.org/2000/svg">
<path d="M27.9167 30.25L17.4167 19.75C16.5833 20.4167 15.625 20.9444 14.5417 21.3333C13.4583 21.7222 12.3056 21.9167 11.0833 21.9167C8.05556 21.9167 5.49306 20.8681 3.39583 18.7708C1.29861 16.6736 0.25 14.1111 0.25 11.0833C0.25 8.05556 1.29861 5.49306 3.39583 3.39583C5.49306 1.29861 8.05556 0.25 11.0833 0.25C14.1111 0.25 16.6736 1.29861 18.7708 3.39583C20.8681 5.49306 21.9167 8.05556 21.9167 11.0833C21.9167 12.3056 21.7222 13.4583 21.3333 14.5417C20.9444 15.625 20.4167 16.5833 19.75 17.4167L30.25 27.9167L27.9167 30.25ZM11.0833 18.5833C13.1667 18.5833 14.9375 17.8542 16.3958 16.3958C17.8542 14.9375 18.5833 13.1667 18.5833 11.0833C18.5833 9 17.8542 7.22917 16.3958 5.77083C14.9375 4.3125 13.1667 3.58333 11.0833 3.58333C9 3.58333 7.22917 4.3125 5.77083 5.77083C4.3125 7.22917 3.58333 9 3.58333 11.0833C3.58333 13.1667 4.3125 14.9375 5.77083 16.3958C7.22917 17.8542 9 18.5833 11.0833 18.5833Z" fill="#BC1E21"/>
</svg>
